<svg version="1.1" xmlns="http://www.w3.org/2000/svg" viewBox="0 0 421.5507633421189 278.7641200960789" width="843.1015266842378" height="557.5282401921578" filter="invert(93%) hue-rotate(180deg)"><!-- svg-source:excalidraw --><metadata></metadata><defs><style class="style-fonts">
      </style></defs><g transform="translate(99.8753984566265 41.00154632623952) rotate(0 110.89998321443295 98.38051372179993)" stroke="none"><path fill="#1e1e1e" d="M 2.69,1.59 Q 2.69,1.59 0.52,5.16 -1.64,8.72 -5.36,14.38 -9.08,20.04 -14.47,27.99 -19.87,35.93 -26.28,44.76 -32.69,53.58 -38.98,62.39 -45.26,71.20 -50.67,79.38 -56.09,87.57 -60.22,94.37 -64.35,101.17 -67.21,106.69 -70.08,112.21 -71.75,116.43 -73.41,120.65 -74.12,124.22 -74.83,127.79 -75.02,130.97 -75.21,134.16 -74.86,136.84 -74.50,139.53 -73.27,141.72 -72.04,143.91 -69.78,146.12 -67.53,148.33 -64.20,150.93 -60.87,153.54 -56.58,156.60 -52.29,159.66 -47.25,163.58 -42.20,167.51 -36.67,172.24 -31.14,176.98 -25.31,182.11 -19.48,187.24 -13.97,192.00 -8.46,196.76 -3.82,200.55 0.80,204.34 4.59,207.23 8.38,210.12 11.39,212.13 14.40,214.14 16.55,215.37 18.71,216.60 21.04,217.89 23.37,219.17 24.72,220.91 26.07,222.64 25.49,226.33 24.91,230.02 22.18,231.32 19.45,232.62 17.22,232.74 14.99,232.86 10.74,231.40 6.49,229.93 1.04,225.52 -4.40,221.11 -10.31,213.43 -16.22,205.76 -22.42,194.25 -28.63,182.75 -34.96,167.45 -41.29,152.16 -47.22,134.15 -53.14,116.15 -58.11,98.90 -63.07,81.66 -67.08,67.42 -71.08,53.18 -74.29,42.23 -77.50,31.29 -79.90,23.80 -82.30,16.30 -83.98,11.46 -85.66,6.61 -86.90,3.88 -88.15,1.14 -86.35,-0.67 -84.55,-2.48 -84.15,1.42 -83.75,5.34 -84.16,11.79 -84.56,18.23 -85.04,28.04 -85.52,37.85 -85.89,50.22 -86.26,62.59 -86.45,77.14 -86.64,91.70 -86.75,105.76 -86.85,119.82 -86.84,133.00 -86.82,146.18 -86.55,158.32 -86.27,170.46 -85.81,179.24 -85.35,188.02 -84.82,194.16 -84.30,200.30 -83.73,204.51 -83.15,208.71 -82.39,211.02 -81.62,213.32 -79.92,211.64 -78.21,209.96 -76.30,207.48 -74.39,205.01 -72.12,201.61 -69.85,198.21 -67.63,193.86 -65.42,189.50 -63.71,184.69 -61.99,179.88 -60.46,174.00 -58.93,168.13 -57.14,160.76 -55.34,153.39 -53.18,145.42 -51.02,137.45 -48.78,130.54 -46.54,123.62 -44.35,118.10 -42.16,112.59 -40.24,108.47 -38.31,104.35 -36.91,101.71 -35.51,99.08 -32.48,97.69 -29.45,96.29 -26.06,100.26 -22.66,104.22 -21.50,107.50 -20.34,110.78 -19.19,113.77 -18.05,116.75 -16.96,119.14 -15.87,121.53 -14.40,117.50 -12.92,113.46 -10.06,108.10 -7.20,102.74 -4.48,97.68 -1.76,92.62 0.46,88.78 2.68,84.93 3.86,82.64 5.03,80.34 5.64,79.43 6.24,78.51 6.54,78.13 6.84,77.76 7.22,77.46 7.60,77.16 8.04,76.96 8.48,76.77 8.96,76.68 9.43,76.60 9.92,76.63 10.40,76.66 10.86,76.80 11.32,76.95 11.73,77.20 12.15,77.45 12.49,77.79 12.83,78.13 13.08,78.55 13.33,78.96 13.47,79.43 13.61,79.89 13.64,80.37 13.67,80.85 13.58,81.33 13.49,81.80 13.29,82.24 13.09,82.68 15.01,85.60 16.92,88.51 18.54,91.39 20.16,94.28 22.33,92.05 24.49,89.83 28.30,88.78 32.11,87.74 34.60,88.59 37.09,89.45 38.98,90.92 40.86,92.39 42.94,93.82 45.02,95.25 46.17,93.38 47.31,91.52 49.44,91.09 51.57,90.67 54.14,91.34 56.70,92.02 58.55,93.62 60.39,95.23 63.73,91.69 67.07,88.16 68.49,85.92 69.91,83.69 71.37,81.71 72.83,79.74 73.28,79.18 73.74,78.62 74.31,78.19 74.88,77.76 75.54,77.47 76.20,77.19 76.91,77.07 77.62,76.96 78.34,77.01 79.05,77.07 79.74,77.30 80.42,77.52 81.03,77.91 81.63,78.29 82.13,78.81 82.63,79.32 82.99,79.95 83.35,80.57 83.55,81.26 83.75,81.95 83.78,82.66 83.81,83.38 83.67,84.09 83.53,84.79 83.22,85.44 82.92,86.09 83.48,83.85 84.05,81.62 84.97,83.56 85.89,85.49 88.03,88.13 90.17,90.76 92.39,91.68 94.61,92.61 96.89,89.56 99.18,86.52 100.57,84.35 101.96,82.17 103.31,80.16 104.65,78.14 108.70,75.58 112.74,73.02 115.19,73.54 117.65,74.06 119.34,76.03 121.03,78.01 122.44,80.68 123.85,83.35 124.63,80.48 125.41,77.61 127.33,74.97 129.26,72.33 131.19,68.58 133.12,64.82 135.10,58.22 137.07,51.63 139.07,41.85 141.07,32.08 142.66,22.13 144.24,12.18 145.34,4.21 146.44,-3.75 147.18,-9.62 147.92,-15.49 148.27,-19.47 148.62,-23.45 145.71,-18.54 142.81,-13.64 140.77,-8.02 138.72,-2.41 137.26,4.53 135.79,11.48 135.04,19.62 134.28,27.76 133.93,36.73 133.57,45.71 133.64,54.99 133.72,64.28 134.37,73.11 135.03,81.95 135.94,88.96 136.85,95.97 137.75,100.85 138.66,105.73 139.70,108.81 140.75,111.89 142.00,113.63 143.25,115.37 140.91,115.13 138.57,114.88 138.79,111.12 139.00,107.36 139.54,103.90 140.07,100.45 140.62,97.04 141.17,93.63 141.61,90.73 142.06,87.82 142.61,85.07 143.17,82.32 143.37,81.76 143.57,81.21 143.90,80.72 144.23,80.23 144.67,79.84 145.10,79.44 145.62,79.16 146.14,78.88 146.71,78.74 147.28,78.59 147.87,78.58 148.46,78.58 149.03,78.71 149.60,78.84 150.13,79.11 150.65,79.38 151.10,79.77 151.54,80.15 151.88,80.63 152.22,81.11 152.44,81.66 152.65,82.21 152.73,82.79 152.81,83.38 152.74,83.96 152.68,84.55 153.92,89.08 155.16,93.62 155.77,96.29 156.38,98.96 156.54,96.72 156.71,94.47 157.34,91.99 157.97,89.51 158.61,86.07 159.24,82.62 162.27,79.85 165.30,77.08 167.60,77.13 169.90,77.18 172.30,78.37 174.70,79.57 176.85,81.39 179.00,83.21 180.91,85.18 182.82,87.14 184.44,88.67 186.07,90.20 188.80,91.64 191.54,93.07 193.78,93.56 196.02,94.05 198.20,94.54 200.38,95.02 203.44,95.58 206.51,96.14 211.17,96.73 215.82,97.32 222.32,97.71 228.82,98.09 235.42,98.23 242.02,98.37 247.50,98.14 252.98,97.90 257.24,97.57 261.50,97.24 264.72,96.88 267.94,96.52 270.32,96.28 272.69,96.03 274.94,96.27 277.18,96.51 279.63,97.79 282.07,99.06 284.34,101.22 286.61,103.37 288.82,106.10 291.02,108.83 293.25,111.73 295.48,114.62 297.71,117.25 299.93,119.88 302.08,121.87 304.23,123.87 306.06,125.01 307.90,126.15 305.82,125.07 303.74,123.99 301.86,120.83 299.98,117.67 299.64,116.79 299.31,115.90 299.28,114.95 299.25,114.01 299.53,113.10 299.80,112.19 300.35,111.42 300.90,110.65 301.66,110.09 302.43,109.54 303.33,109.26 304.24,108.97 305.18,109.00 306.13,109.02 307.02,109.34 307.91,109.66 308.65,110.25 309.39,110.84 309.91,111.64 310.42,112.43 310.65,113.35 310.89,114.27 310.81,115.21 310.74,116.15 310.37,117.03 310.00,117.90 309.37,118.60 308.74,119.31 307.92,119.78 307.10,120.25 306.17,120.44 305.24,120.62 304.30,120.49 303.36,120.37 302.51,119.95 301.66,119.54 300.99,118.87 300.32,118.21 299.89,117.36 299.47,116.51 299.34,115.58 299.21,114.64 299.38,113.71 299.55,112.78 300.02,111.95 300.48,111.12 301.18,110.49 301.88,109.85 302.75,109.47 303.62,109.10 304.56,109.02 305.50,108.93 306.42,109.16 307.34,109.38 308.14,109.89 308.94,110.39 309.54,111.13 310.14,111.87 310.14,111.86 310.14,111.86 310.92,113.34 311.71,114.81 313.70,118.80 315.69,122.78 316.27,126.14 316.85,129.51 315.29,132.37 313.73,135.23 311.18,135.94 308.63,136.66 305.68,135.10 302.72,133.54 300.50,131.83 298.28,130.12 295.91,127.79 293.53,125.47 291.13,122.80 288.73,120.12 286.36,117.37 284.00,114.63 281.99,112.24 279.97,109.85 278.52,108.20 277.07,106.55 274.97,105.18 272.86,103.82 270.66,103.69 268.46,103.57 265.32,103.68 262.19,103.78 257.84,104.37 253.50,104.95 247.81,105.52 242.12,106.10 235.40,106.41 228.69,106.72 222.03,106.91 215.37,107.11 210.24,107.24 205.11,107.38 201.51,107.10 197.92,106.83 195.42,106.34 192.92,105.85 189.82,104.86 186.72,103.88 184.64,102.86 182.56,101.84 180.34,100.31 178.12,98.77 176.30,97.09 174.47,95.41 172.87,93.82 171.26,92.24 170.28,89.92 169.30,87.60 168.81,89.82 168.33,92.04 167.62,95.03 166.91,98.03 165.76,101.34 164.61,104.66 162.23,107.46 159.85,110.26 156.92,110.47 154.00,110.67 151.28,108.46 148.57,106.26 147.60,103.75 146.64,101.24 145.95,98.29 145.26,95.33 144.59,90.94 143.93,86.54 143.55,84.43 143.17,82.32 143.37,81.76 143.57,81.21 143.90,80.72 144.23,80.23 144.67,79.84 145.10,79.44 145.62,79.16 146.14,78.88 146.71,78.74 147.28,78.59 147.87,78.58 148.46,78.58 149.03,78.71 149.60,78.84 150.13,79.11 150.65,79.38 151.10,79.77 151.54,80.15 151.88,80.63 152.22,81.11 152.44,81.66 152.65,82.21 152.73,82.79 152.81,83.38 152.74,83.96 152.68,84.55 151.76,86.94 150.85,89.33 150.32,92.12 149.78,94.90 149.33,98.27 148.87,101.65 148.47,105.08 148.08,108.51 147.65,111.43 147.23,114.34 145.57,117.44 143.91,120.54 140.05,119.10 136.18,117.67 135.54,115.61 134.90,113.55 134.10,110.15 133.31,106.74 132.35,101.72 131.38,96.70 130.41,89.54 129.43,82.38 128.70,73.37 127.97,64.35 127.81,54.93 127.64,45.51 127.88,36.38 128.11,27.24 128.75,18.74 129.38,10.24 130.73,2.79 132.08,-4.65 134.04,-10.89 136.00,-17.12 138.24,-21.86 140.48,-26.59 145.36,-29.69 150.24,-32.79 152.65,-30.40 155.07,-28.01 154.90,-25.47 154.73,-22.93 154.39,-18.87 154.05,-14.81 153.48,-8.88 152.90,-2.96 152.03,5.10 151.15,13.17 149.86,23.31 148.56,33.45 146.92,43.60 145.27,53.75 143.62,61.13 141.98,68.51 140.32,73.33 138.66,78.15 136.61,81.91 134.56,85.68 132.05,88.54 129.53,91.40 126.40,92.82 123.28,94.25 120.23,93.72 117.19,93.19 115.20,91.45 113.22,89.71 113.64,87.11 114.07,84.51 112.85,86.29 111.64,88.08 110.13,90.66 108.62,93.23 106.55,96.17 104.48,99.11 101.35,101.34 98.21,103.58 94.83,103.85 91.45,104.13 88.72,103.15 86.00,102.18 83.74,100.59 81.48,99.00 79.61,96.95 77.74,94.90 75.76,91.31 73.78,87.71 73.30,83.73 72.83,79.74 73.28,79.18 73.73,78.62 74.31,78.19 74.88,77.76 75.54,77.47 76.20,77.19 76.91,77.07 77.62,76.96 78.34,77.01 79.05,77.07 79.74,77.30 80.42,77.52 81.03,77.91 81.63,78.29 82.13,78.81 82.63,79.32 82.99,79.95 83.35,80.57 83.55,81.26 83.75,81.95 83.78,82.66 83.81,83.38 83.67,84.09 83.53,84.79 83.22,85.44 82.92,86.09 81.35,87.88 79.79,89.66 78.42,92.05 77.04,94.44 75.24,97.66 73.44,100.88 70.81,104.27 68.18,107.66 64.67,108.99 61.15,110.33 57.95,109.46 54.76,108.60 52.93,106.63 51.09,104.67 48.96,105.90 46.83,107.13 44.32,107.18 41.82,107.23 38.69,105.57 35.56,103.91 33.31,101.56 31.07,99.21 28.85,100.74 26.64,102.27 24.12,103.16 21.61,104.06 18.97,103.60 16.34,103.14 14.29,101.54 12.25,99.94 10.99,97.76 9.73,95.57 8.96,93.09 8.20,90.60 7.95,87.33 7.71,84.06 6.97,81.29 6.24,78.51 6.54,78.14 6.84,77.76 7.22,77.46 7.60,77.16 8.04,76.96 8.48,76.77 8.96,76.68 9.43,76.60 9.92,76.63 10.40,76.66 10.86,76.80 11.32,76.95 11.73,77.20 12.15,77.45 12.49,77.79 12.83,78.13 13.08,78.55 13.32,78.96 13.47,79.42 13.61,79.89 13.64,80.37 13.67,80.85 13.58,81.33 13.49,81.80 13.29,82.24 13.09,82.68 12.22,83.45 11.35,84.21 9.94,86.16 8.54,88.10 6.59,91.96 4.64,95.82 2.26,101.00 -0.11,106.18 -2.61,111.85 -5.10,117.51 -7.37,122.42 -9.65,127.32 -11.95,129.01 -14.25,130.71 -17.99,129.84 -21.72,128.97 -22.83,126.93 -23.94,124.88 -24.92,122.29 -25.89,119.69 -27.01,116.62 -28.14,113.54 -29.23,110.46 -30.32,107.37 -30.28,104.99 -30.25,102.61 -31.81,104.62 -33.37,106.64 -35.20,110.62 -37.02,114.60 -39.10,119.97 -41.18,125.33 -43.31,132.13 -45.45,138.93 -47.50,146.84 -49.54,154.75 -51.22,162.18 -52.89,169.62 -54.32,175.78 -55.75,181.95 -57.38,187.22 -59.01,192.50 -61.11,197.34 -63.20,202.17 -65.36,206.21 -67.52,210.24 -69.77,213.22 -72.03,216.21 -74.72,218.48 -77.42,220.75 -80.01,221.00 -82.60,221.24 -85.21,217.98 -87.82,214.73 -88.15,212.09 -88.49,209.45 -89.10,205.12 -89.71,200.78 -90.27,194.55 -90.84,188.32 -91.35,179.46 -91.86,170.60 -92.20,158.40 -92.54,146.20 -92.64,133.00 -92.75,119.80 -92.76,105.73 -92.77,91.65 -92.75,77.05 -92.72,62.45 -92.57,50.04 -92.43,37.63 -92.25,27.81 -92.08,18.00 -92.08,11.49 -92.09,4.99 -91.93,1.53 -91.77,-1.91 -89.48,-4.67 -87.18,-7.43 -84.73,-4.24 -82.29,-1.05 -81.40,1.88 -80.52,4.81 -78.78,9.71 -77.05,14.60 -74.58,22.15 -72.11,29.69 -68.83,40.65 -65.54,51.60 -61.45,65.80 -57.35,79.99 -52.30,97.09 -47.25,114.18 -41.24,131.89 -35.23,149.61 -28.84,164.47 -22.44,179.33 -16.31,190.14 -10.17,200.96 -4.63,207.64 0.90,214.32 5.32,217.53 9.75,220.73 12.41,221.56 15.07,222.40 16.74,223.98 18.40,225.56 16.62,223.86 14.84,222.16 12.91,220.54 10.97,218.92 8.04,216.67 5.11,214.43 1.23,211.51 -2.64,208.59 -7.35,204.78 -12.07,200.98 -17.64,196.25 -23.21,191.52 -29.06,186.47 -34.90,181.43 -40.38,176.87 -45.86,172.32 -50.87,168.60 -55.88,164.89 -60.38,161.92 -64.88,158.96 -68.82,156.18 -72.76,153.41 -75.71,150.25 -78.66,147.09 -80.01,143.61 -81.36,140.14 -81.40,136.82 -81.44,133.49 -80.90,130.01 -80.36,126.53 -79.36,122.62 -78.36,118.71 -76.59,114.23 -74.82,109.75 -71.88,104.07 -68.94,98.39 -64.78,91.49 -60.61,84.59 -55.17,76.31 -49.72,68.02 -43.46,59.17 -37.20,50.33 -30.89,41.54 -24.58,32.76 -19.28,24.82 -13.98,16.88 -10.42,11.25 -6.86,5.63 -4.77,2.02 -2.69,-1.59 -2.46,-1.89 -2.23,-2.19 -1.93,-2.42 -1.64,-2.66 -1.30,-2.82 -0.95,-2.98 -0.58,-3.05 -0.21,-3.12 0.16,-3.10 0.53,-3.08 0.89,-2.97 1.25,-2.86 1.58,-2.67 1.90,-2.48 2.17,-2.21 2.44,-1.95 2.64,-1.63 2.84,-1.31 2.95,-0.95 3.07,-0.59 3.10,-0.21 3.12,0.16 3.06,0.53 2.99,0.90 2.84,1.25 2.69,1.59 2.69,1.59 L 2.69,1.59 Z"></path></g><g transform="translate(406.99731719779265 159.97787867661685) rotate(0 -3.976743163492074 -4.418046314043522)" stroke="none"><path fill="#1e1e1e" d="M -4.53,2.15 Q -4.53,2.15 -5.40,0.52 -6.27,-1.10 -8.19,-2.40 -10.12,-3.70 -10.88,-4.18 -11.64,-4.66 -12.21,-5.36 -12.78,-6.06 -13.09,-6.91 -13.41,-7.75 -13.44,-8.65 -13.47,-9.55 -13.21,-10.41 -12.95,-11.28 -12.43,-12.01 -11.91,-12.74 -11.18,-13.27 -10.45,-13.80 -9.59,-14.07 -8.73,-14.34 -7.83,-14.32 -6.93,-14.31 -6.08,-14.00 -5.24,-13.69 -4.53,-13.13 -3.83,-12.57 -3.34,-11.82 -2.85,-11.06 -2.62,-10.19 -2.40,-9.32 -2.47,-8.42 -2.54,-7.52 -2.89,-6.69 -3.24,-5.86 -3.84,-5.19 -4.43,-4.51 -5.22,-4.06 -6.00,-3.62 -6.88,-3.44 -7.77,-3.27 -8.66,-3.38 -9.55,-3.50 -10.36,-3.89 -11.17,-4.29 -11.81,-4.92 -12.45,-5.56 -12.86,-6.36 -13.26,-7.17 -13.39,-8.06 -13.52,-8.95 -13.35,-9.84 -13.19,-10.72 -12.75,-11.51 -12.31,-12.29 -11.64,-12.90 -10.97,-13.51 -10.15,-13.87 -9.32,-14.23 -8.43,-14.31 -7.53,-14.38 -6.65,-14.17 -5.78,-13.96 -5.78,-13.96 -5.78,-13.96 -3.39,-12.46 -1.01,-10.97 1.03,-8.28 3.08,-5.59 3.81,-3.87 4.53,-2.15 4.72,-1.57 4.91,-1.00 4.96,-0.40 5.01,0.19 4.91,0.79 4.82,1.39 4.58,1.95 4.34,2.50 3.98,2.99 3.62,3.47 3.15,3.85 2.68,4.24 2.13,4.49 1.59,4.75 0.99,4.88 0.40,5.00 -0.19,4.97 -0.80,4.95 -1.38,4.78 -1.96,4.61 -2.48,4.31 -3.01,4.01 -3.44,3.59 -3.88,3.17 -4.20,2.66 -4.53,2.15 -4.53,2.15 L -4.53,2.15 Z"></path></g><g transform="translate(72.63495852713231 144.92342347257755) rotate(0 127.26831825306863 -29.70521832149464)" stroke="none"><path fill="#1e1e1e" d="M -1.92,4.94 Q -1.92,4.94 -4.39,3.97 -6.86,3.00 -10.08,2.70 -13.29,2.40 -16.42,2.33 -19.55,2.27 -23.53,0.58 -27.51,-1.10 -29.18,-2.72 -30.85,-4.35 -32.22,-6.11 -33.59,-7.88 -35.57,-10.85 -37.56,-13.83 -39.00,-16.29 -40.44,-18.76 -40.50,-21.55 -40.56,-24.35 -38.54,-27.34 -36.52,-30.34 -30.98,-32.51 -25.44,-34.68 -14.57,-37.06 -3.71,-39.44 13.29,-42.24 30.29,-45.04 53.03,-47.93 75.77,-50.82 100.55,-53.28 125.34,-55.74 147.37,-57.31 169.40,-58.87 188.32,-59.77 207.25,-60.67 221.83,-61.13 236.42,-61.59 246.39,-61.77 256.36,-61.94 263.00,-61.91 269.64,-61.88 273.69,-61.71 277.74,-61.53 280.06,-61.47 282.38,-61.42 286.10,-61.40 289.83,-61.39 290.46,-61.29 291.10,-61.18 291.67,-60.87 292.24,-60.57 292.68,-60.10 293.12,-59.62 293.39,-59.04 293.66,-58.45 293.73,-57.80 293.79,-57.16 293.65,-56.53 293.51,-55.90 293.17,-55.35 292.84,-54.80 292.34,-54.38 291.85,-53.97 291.24,-53.73 290.64,-53.49 290.00,-53.46 289.35,-53.43 288.73,-53.61 288.11,-53.78 287.58,-54.15 287.04,-54.51 286.65,-55.03 286.27,-55.55 286.06,-56.16 285.86,-56.78 285.86,-57.42 285.87,-58.07 286.08,-58.68 286.29,-59.29 286.68,-59.80 287.07,-60.32 287.61,-60.67 288.15,-61.03 288.77,-61.20 289.40,-61.37 290.04,-61.33 290.69,-61.30 291.29,-61.05 291.88,-60.81 292.37,-60.39 292.87,-59.97 293.20,-59.41 293.53,-58.86 293.66,-58.23 293.80,-57.59 293.72,-56.95 293.65,-56.31 293.37,-55.72 293.10,-55.14 292.65,-54.67 292.21,-54.21 291.63,-53.91 291.06,-53.61 290.42,-53.51 289.78,-53.40 289.78,-53.40 289.78,-53.40 286.71,-53.72 283.63,-54.04 280.53,-54.91 277.43,-55.78 273.54,-56.03 269.64,-56.28 263.07,-56.25 256.49,-56.21 246.56,-55.95 236.63,-55.68 222.10,-55.10 207.57,-54.52 188.73,-53.45 169.90,-52.39 147.98,-50.61 126.07,-48.82 101.43,-46.06 76.80,-43.31 54.30,-40.02 31.79,-36.74 15.20,-33.45 -1.39,-30.17 -11.24,-27.37 -21.09,-24.57 -24.83,-23.68 -28.57,-22.79 -27.02,-20.30 -25.48,-17.80 -23.80,-15.25 -22.13,-12.70 -20.38,-10.96 -18.62,-9.21 -15.44,-8.91 -12.26,-8.60 -10.13,-8.32 -8.01,-8.05 -5.53,-7.46 -3.04,-6.87 -0.56,-5.90 1.92,-4.94 2.49,-4.64 3.05,-4.34 3.52,-3.91 4.00,-3.48 4.36,-2.95 4.72,-2.42 4.94,-1.82 5.16,-1.22 5.23,-0.58 5.30,0.04 5.22,0.68 5.14,1.31 4.90,1.91 4.67,2.50 4.30,3.03 3.94,3.55 3.45,3.97 2.97,4.39 2.40,4.68 1.83,4.97 1.21,5.12 0.59,5.27 -0.04,5.26 -0.68,5.26 -1.30,5.10 -1.92,4.94 -1.92,4.94 L -1.92,4.94 Z"></path></g></svg>